<svg viewBox="0 0 300 640" xmlns="http://www.w3.org/2000/svg">
  <defs>
    <linearGradient id="gr" x1="0%" y1="0%" x2="100%" y2="100%">
      <stop offset="0%" stop-color="#8B5CF6"/>
      <stop offset="50%" stop-color="#AE2E8A"/>
      <stop offset="100%" stop-color="#F472B6"/>
    </linearGradient>
    <linearGradient id="grh" x1="0%" y1="0%" x2="100%" y2="0%">
      <stop offset="0%" stop-color="#8B5CF6"/>
      <stop offset="50%" stop-color="#AE2E8A"/>
      <stop offset="100%" stop-color="#F472B6"/>
    </linearGradient>
    <!-- Gradient screen header -->
    <linearGradient id="hdr" x1="0%" y1="0%" x2="100%" y2="0%">
      <stop offset="0%" stop-color="#8B5CF6"/>
      <stop offset="50%" stop-color="#AE2E8A"/>
      <stop offset="100%" stop-color="#F472B6"/>
    </linearGradient>
    <filter id="sh" x="-12%" y="-6%" width="124%" height="118%">
      <feDropShadow dx="0" dy="8" stdDeviation="18" flood-color="#000" flood-opacity="0.32"/>
    </filter>
    <clipPath id="sc">
      <rect x="8" y="8" width="284" height="624" rx="44"/>
    </clipPath>
  </defs>

  <!-- Phone frame -->
  <rect x="4" y="4" width="292" height="632" rx="48" fill="#1C1C1E" filter="url(#sh)"/>
  <rect x="8" y="8" width="284" height="624" rx="44" fill="#F5F5F5"/>

  <g clip-path="url(#sc)">
    <!-- Dynamic island -->
    <rect x="114" y="16" width="72" height="26" rx="13" fill="#1C1C1E"/>

    <!-- Gradient navigation header -->
    <rect x="8" y="8" width="284" height="58" fill="url(#hdr)"/>

    <!-- Status bar: time (white on gradient) -->
    <text x="26" y="38" font-family="-apple-system,system-ui,sans-serif" font-size="13.5" font-weight="600" fill="white">9:41</text>
    <!-- Battery (white) -->
    <rect x="254" y="30" width="24" height="12" rx="3.5" fill="none" stroke="white" stroke-width="1.5" opacity="0.9"/>
    <rect x="278" y="33.5" width="2.5" height="5" rx="1" fill="white" opacity="0.5"/>
    <rect x="256.5" y="32" width="17" height="8" rx="2" fill="white" opacity="0.9"/>
    <!-- Signal (white) -->
    <rect x="240" y="34" width="3" height="8" rx="1.5" fill="white"/>
    <rect x="245.5" y="36.5" width="3" height="5.5" rx="1.5" fill="white"/>
    <rect x="251" y="38.5" width="3" height="3.5" rx="1.5" fill="white" opacity="0.4"/>

    <!-- Header title "Utgifter" -->
    <text x="150" y="55" font-family="-apple-system,sans-serif" font-size="16" font-weight="700" fill="white" text-anchor="middle">Utgifter</text>
    <!-- Crown icon top-right (premium) -->
    <path d="M266,47 L270,42 L274,47 L278,42 L282,47 L280,52 L268,52 Z" fill="none" stroke="white" stroke-width="1.5" stroke-linejoin="round" opacity="0.85"/>

    <!-- SEARCH BAR -->
    <rect x="16" y="70" width="268" height="40" rx="12" fill="white"/>
    <!-- Magnifier icon -->
    <circle cx="35" cy="90" r="7" fill="none" stroke="#BDBDBD" stroke-width="1.8"/>
    <line x1="40" y1="95" x2="44" y2="99" stroke="#BDBDBD" stroke-width="1.8" stroke-linecap="round"/>
    <text x="55" y="94.5" font-family="-apple-system,sans-serif" font-size="13.5" fill="#BDBDBD">Sök utgifter...</text>

    <!-- SORT PILLS -->
    <rect x="176" y="118" width="56" height="26" rx="13" fill="white" stroke="#AE2E8A" stroke-width="1.5"/>
    <text x="204" y="135" font-family="-apple-system,sans-serif" font-size="11" font-weight="600" fill="#AE2E8A" text-anchor="middle">Datum</text>
    <!-- down arrow -->
    <polyline points="228,126 231,130 234,126" fill="none" stroke="#AE2E8A" stroke-width="1.5" stroke-linecap="round" stroke-linejoin="round"/>

    <rect x="240" y="118" width="56" height="26" rx="13" fill="white" stroke="#E0E0E0" stroke-width="1.2"/>
    <text x="268" y="135" font-family="-apple-system,sans-serif" font-size="11" font-weight="500" fill="#9E9E9E" text-anchor="middle">Belopp</text>

    <!-- EXPENSE ITEMS -->
    <!-- Item 1: Farrier -->
    <rect x="16" y="154" width="268" height="66" rx="13" fill="white"/>
    <rect x="30" y="169" width="38" height="38" rx="10" fill="#F4B4B8"/>
    <!-- horseshoe icon dots -->
    <circle cx="49" cy="182" r="4" fill="none" stroke="#212121" stroke-width="1.8"/>
    <path d="M43,186 Q43,193 49,193 Q55,193 55,186" fill="none" stroke="#212121" stroke-width="1.8" stroke-linecap="round"/>
    <text x="78" y="179" font-family="-apple-system,sans-serif" font-size="13.5" font-weight="600" fill="#212121">Hovslagare</text>
    <text x="266" y="179" font-family="-apple-system,sans-serif" font-size="14" font-weight="700" fill="#212121" text-anchor="end">850 kr</text>
    <text x="78" y="195" font-family="-apple-system,sans-serif" font-size="11.5" fill="#9E9E9E">Regelbunden trimning</text>
    <text x="78" y="210" font-family="-apple-system,sans-serif" font-size="10.5" fill="#9E9E9E">Bella · 3 mar 2026</text>
    <rect x="224" y="203" width="34" height="16" rx="8" fill="#AE2E8A18"/>
    <text x="241" y="215" font-family="-apple-system,sans-serif" font-size="10" font-weight="600" fill="#AE2E8A" text-anchor="middle">Fast</text>

    <!-- Item 2: Feed -->
    <rect x="16" y="228" width="268" height="66" rx="13" fill="white"/>
    <rect x="30" y="243" width="38" height="38" rx="10" fill="#F4E0A8"/>
    <!-- grain icon simplified -->
    <ellipse cx="49" cy="258" rx="5" ry="8" fill="none" stroke="#212121" stroke-width="1.7"/>
    <line x1="49" y1="254" x2="49" y2="266" stroke="#212121" stroke-width="1.2"/>
    <line x1="44.5" y1="258" x2="53.5" y2="258" stroke="#212121" stroke-width="1.2"/>
    <text x="78" y="253" font-family="-apple-system,sans-serif" font-size="13.5" font-weight="600" fill="#212121">Foder</text>
    <text x="266" y="253" font-family="-apple-system,sans-serif" font-size="14" font-weight="700" fill="#212121" text-anchor="end">3 250 kr</text>
    <text x="78" y="269" font-family="-apple-system,sans-serif" font-size="11.5" fill="#9E9E9E">Hösilage Mars</text>
    <text x="78" y="284" font-family="-apple-system,sans-serif" font-size="10.5" fill="#9E9E9E">Bella · 1 mar 2026</text>
    <rect x="220" y="277" width="42" height="16" rx="8" fill="#FFA72618"/>
    <text x="241" y="289" font-family="-apple-system,sans-serif" font-size="10" font-weight="600" fill="#F57C00" text-anchor="middle">Engång</text>

    <!-- Item 3: Vet -->
    <rect x="16" y="302" width="268" height="66" rx="13" fill="white"/>
    <rect x="30" y="317" width="38" height="38" rx="10" fill="#BAC4F2"/>
    <!-- stethoscope / cross icon -->
    <line x1="49" y1="328" x2="49" y2="344" stroke="#212121" stroke-width="2.2" stroke-linecap="round"/>
    <line x1="41.5" y1="336" x2="56.5" y2="336" stroke="#212121" stroke-width="2.2" stroke-linecap="round"/>
    <text x="78" y="327" font-family="-apple-system,sans-serif" font-size="13.5" font-weight="600" fill="#212121">Veterinär</text>
    <text x="266" y="327" font-family="-apple-system,sans-serif" font-size="14" font-weight="700" fill="#212121" text-anchor="end">1 680 kr</text>
    <text x="78" y="343" font-family="-apple-system,sans-serif" font-size="11.5" fill="#9E9E9E">Hälsokontroll</text>
    <text x="78" y="358" font-family="-apple-system,sans-serif" font-size="10.5" fill="#9E9E9E">Bella · 28 feb 2026</text>
    <rect x="220" y="351" width="42" height="16" rx="8" fill="#FFA72618"/>
    <text x="241" y="363" font-family="-apple-system,sans-serif" font-size="10" font-weight="600" fill="#F57C00" text-anchor="middle">Engång</text>

    <!-- Item 4: Training -->
    <rect x="16" y="376" width="268" height="66" rx="13" fill="white"/>
    <rect x="30" y="391" width="38" height="38" rx="10" fill="#C8B8F4"/>
    <!-- star/sparkle icon -->
    <path d="M49,396 L51,402 L57,402 L52.5,406 L54,412 L49,409 L44,412 L45.5,406 L41,402 L47,402 Z" fill="#212121" opacity="0.6"/>
    <text x="78" y="401" font-family="-apple-system,sans-serif" font-size="13.5" font-weight="600" fill="#212121">Träning</text>
    <text x="266" y="401" font-family="-apple-system,sans-serif" font-size="14" font-weight="700" fill="#212121" text-anchor="end">500 kr</text>
    <text x="78" y="417" font-family="-apple-system,sans-serif" font-size="11.5" fill="#9E9E9E">Dressyrlektion</text>
    <text x="78" y="432" font-family="-apple-system,sans-serif" font-size="10.5" fill="#9E9E9E">Bella · 24 feb 2026</text>
    <rect x="224" y="425" width="34" height="16" rx="8" fill="#AE2E8A18"/>
    <text x="241" y="437" font-family="-apple-system,sans-serif" font-size="10" font-weight="600" fill="#AE2E8A" text-anchor="middle">Fast</text>

    <!-- Item 5: Equipment (partially visible) -->
    <rect x="16" y="450" width="268" height="66" rx="13" fill="white"/>
    <rect x="30" y="465" width="38" height="38" rx="10" fill="#BCDFC4"/>
    <!-- wrench simplified -->
    <path d="M44,473 L54,483" stroke="#212121" stroke-width="2.5" stroke-linecap="round"/>
    <circle cx="43" cy="472" r="4" fill="none" stroke="#212121" stroke-width="1.8"/>
    <text x="78" y="475" font-family="-apple-system,sans-serif" font-size="13.5" font-weight="600" fill="#212121">Utrustning</text>
    <text x="266" y="475" font-family="-apple-system,sans-serif" font-size="14" font-weight="700" fill="#212121" text-anchor="end">1 200 kr</text>
    <text x="78" y="491" font-family="-apple-system,sans-serif" font-size="11.5" fill="#9E9E9E">Ny sadel</text>
    <text x="78" y="506" font-family="-apple-system,sans-serif" font-size="10.5" fill="#9E9E9E">Bella · 18 feb 2026</text>
    <rect x="220" y="499" width="42" height="16" rx="8" fill="#FFA72618"/>
    <text x="241" y="511" font-family="-apple-system,sans-serif" font-size="10" font-weight="600" fill="#F57C00" text-anchor="middle">Engång</text>

    <!-- Fade at bottom before tab bar -->
    <rect x="8" y="530" width="284" height="52" fill="url(#fade)" opacity="0.7"/>
    <linearGradient id="fade" x1="0" y1="0" x2="0" y2="1">
      <stop offset="0%" stop-color="#F5F5F5" stop-opacity="0"/>
      <stop offset="100%" stop-color="#F5F5F5" stop-opacity="1"/>
    </linearGradient>
    <rect x="8" y="530" width="284" height="52" fill="url(#fade)"/>

    <!-- TAB BAR -->
    <rect x="8" y="582" width="284" height="50" fill="white"/>
    <line x1="8" y1="582" x2="292" y2="582" stroke="#E0E0E0" stroke-width="0.75"/>

    <!-- Tab 1: Home -->
    <path d="M29,608 L29,601 L37,601 L37,608" fill="none" stroke="#9E9E9E" stroke-width="1.8" stroke-linejoin="round"/>
    <polyline points="25,604 33,596.5 41,604" fill="none" stroke="#9E9E9E" stroke-width="1.8" stroke-linecap="round" stroke-linejoin="round"/>
    <text x="33" y="620" font-family="-apple-system,sans-serif" font-size="8.5" fill="#9E9E9E" text-anchor="middle">Hem</text>

    <!-- Tab 2: Expenses (active, gradient) -->
    <line x1="83" y1="597" x2="93" y2="597" stroke="url(#grh)" stroke-width="1.8" stroke-linecap="round"/>
    <line x1="83" y1="602" x2="93" y2="602" stroke="url(#grh)" stroke-width="1.8" stroke-linecap="round"/>
    <line x1="83" y1="607" x2="90" y2="607" stroke="url(#grh)" stroke-width="1.8" stroke-linecap="round"/>
    <text x="88" y="620" font-family="-apple-system,sans-serif" font-size="8.5" fill="#AE2E8A" text-anchor="middle" font-weight="600">Utgifter</text>

    <!-- Tab 3: Add (gradient circle) -->
    <circle cx="150" cy="602" r="17" fill="url(#gr)"/>
    <line x1="150" y1="595.5" x2="150" y2="608.5" stroke="white" stroke-width="2.3" stroke-linecap="round"/>
    <line x1="143.5" y1="602" x2="156.5" y2="602" stroke="white" stroke-width="2.3" stroke-linecap="round"/>

    <!-- Tab 4: Horses -->
    <ellipse cx="209" cy="604" rx="8" ry="5" fill="none" stroke="#9E9E9E" stroke-width="1.6"/>
    <circle cx="219" cy="598" r="4.5" fill="none" stroke="#9E9E9E" stroke-width="1.6"/>
    <line x1="214" y1="601" x2="216" y2="600" stroke="#9E9E9E" stroke-width="1.6"/>
    <path d="M220,593.5 L222,591 L223,594" fill="none" stroke="#9E9E9E" stroke-width="1.2" stroke-linejoin="round"/>
    <line x1="203" y1="609" x2="201" y2="616" stroke="#9E9E9E" stroke-width="1.5" stroke-linecap="round"/>
    <line x1="207" y1="609" x2="206" y2="616" stroke="#9E9E9E" stroke-width="1.5" stroke-linecap="round"/>
    <line x1="213" y1="609" x2="213" y2="616" stroke="#9E9E9E" stroke-width="1.5" stroke-linecap="round"/>
    <text x="212" y="626" font-family="-apple-system,sans-serif" font-size="8.5" fill="#9E9E9E" text-anchor="middle">Hästar</text>

    <!-- Tab 5: Statistics -->
    <rect x="256" y="606" width="4" height="5" rx="1" fill="#9E9E9E"/>
    <rect x="262" y="601" width="4" height="10" rx="1" fill="#9E9E9E"/>
    <rect x="268" y="598" width="4" height="13" rx="1" fill="#9E9E9E"/>
    <text x="264" y="620" font-family="-apple-system,sans-serif" font-size="8.5" fill="#9E9E9E" text-anchor="middle">Statistik</text>
  </g>
</svg>
